<svg width="24" height="24" viewBox="0 0 24 24" fill="none" xmlns="http://www.w3.org/2000/svg">
<path d="M22.4503 17.351C22.2056 17.0904 21.3417 16.3197 19.7536 15.3002C18.1537 14.2718 16.9739 13.6305 16.6354 13.481C16.6056 13.4678 16.5727 13.4629 16.5404 13.467C16.508 13.471 16.4773 13.4838 16.4517 13.504C15.9065 13.9291 14.9887 14.71 14.9395 14.7522C14.6217 15.0246 14.6217 15.0246 14.3615 14.9397C13.904 14.7897 12.4828 14.035 11.2443 12.7938C10.0059 11.5525 9.21231 10.0961 9.06231 9.63911C8.97653 9.37849 8.97653 9.37849 9.24981 9.06067C9.292 9.01146 10.0734 8.09364 10.4986 7.54895C10.5187 7.5233 10.5315 7.49264 10.5356 7.46027C10.5396 7.4279 10.5348 7.39503 10.5215 7.36521C10.372 7.0263 9.73075 5.84692 8.70231 4.24708C7.68137 2.65942 6.91168 1.79552 6.65106 1.55083C6.62714 1.52826 6.59758 1.51256 6.56549 1.50538C6.5334 1.49821 6.49997 1.49982 6.46872 1.51005C5.55769 1.82312 4.67869 2.22259 3.84372 2.70302C3.03766 3.17159 2.27455 3.7104 1.56325 4.31317C1.53842 4.33428 1.5198 4.36175 1.5094 4.39264C1.49899 4.42352 1.49719 4.45666 1.50418 4.48849C1.60215 4.94505 2.07043 6.85099 3.52356 9.49099C5.00622 12.1854 6.03372 13.5658 8.21106 15.7357C10.3884 17.9055 11.8125 18.9949 14.5097 20.4775C17.1497 21.9307 19.0565 22.3994 19.5122 22.4965C19.5441 22.5034 19.5772 22.5016 19.6082 22.4912C19.6391 22.4808 19.6667 22.4622 19.6879 22.4374C20.2906 21.7261 20.8293 20.963 21.2976 20.1569C21.778 19.3219 22.1774 18.4429 22.4906 17.5319C22.5006 17.5009 22.5022 17.4678 22.4951 17.436C22.488 17.4042 22.4725 17.3748 22.4503 17.351Z" fill="#C2F25D"/>
</svg>
